<svg width="14" height="15" viewBox="0 0 14 15" fill="none" xmlns="http://www.w3.org/2000/svg">
<path d="M9.1875 7.79028C9.1875 8.37044 8.95703 8.92684 8.5468 9.33708C8.13656 9.74731 7.58016 9.97778 7 9.97778C6.41984 9.97778 5.86344 9.74731 5.4532 9.33708C5.04297 8.92684 4.8125 8.37044 4.8125 7.79028C4.8125 7.21012 5.04297 6.65372 5.4532 6.24349C5.86344 5.83325 6.41984 5.60278 7 5.60278C7.58016 5.60278 8.13656 5.83325 8.5468 6.24349C8.95703 6.65372 9.1875 7.21012 9.1875 7.79028Z" fill="#1E1E1E"/>
<path d="M0 7.79028C0 7.79028 2.625 2.97778 7 2.97778C11.375 2.97778 14 7.79028 14 7.79028C14 7.79028 11.375 12.6028 7 12.6028C2.625 12.6028 0 7.79028 0 7.79028ZM7 10.8528C7.81223 10.8528 8.59118 10.5301 9.16551 9.9558C9.73984 9.38147 10.0625 8.60251 10.0625 7.79028C10.0625 6.97806 9.73984 6.1991 9.16551 5.62477C8.59118 5.05044 7.81223 4.72778 7 4.72778C6.18777 4.72778 5.40882 5.05044 4.83449 5.62477C4.26016 6.1991 3.9375 6.97806 3.9375 7.79028C3.9375 8.60251 4.26016 9.38147 4.83449 9.9558C5.40882 10.5301 6.18777 10.8528 7 10.8528Z" fill="#1E1E1E"/>
</svg>
