<svg width="10" height="10" viewBox="0 0 10 10" fill="none" xmlns="http://www.w3.org/2000/svg">
<path d="M4.92291 7.86024C5.31366 7.86024 5.63042 7.58703 5.63042 7.28852C5.63042 7.03592 5.31366 6.83114 4.92291 6.83114C4.53217 6.83114 4.21541 7.03592 4.21541 7.28852C4.21541 7.58703 4.53217 7.86024 4.92291 7.86024Z" fill="#1E1E1E"/>
<path fill-rule="evenodd" clip-rule="evenodd" d="M5 10C7.76142 10 10 7.76142 10 5C10 2.23858 7.76142 0 5 0C2.23858 0 0 2.23858 0 5C0 7.76142 2.23858 10 5 10ZM8.82887 5.14526C8.82887 2.98923 7.08107 1.24143 4.92504 1.24143C2.76901 1.24143 1.02121 2.98923 1.02121 5.14526C1.02121 6.06871 1.34185 6.91727 1.87786 7.58569C1.92616 7.62863 1.982 7.65984 2.03922 7.65166C2.16757 7.63333 2.20149 7.39267 2.21204 7.31787L2.21295 7.31142L2.21421 7.32857C2.4097 5.73589 2.73897 4.09609 4.02785 3.00885C4.32841 2.75531 4.60672 2.63287 4.92831 2.63287C5.24991 2.63287 5.52821 2.75531 5.82877 3.00885C7.15196 4.12503 7.46378 5.82356 7.65775 7.45563C7.68082 7.54486 7.72286 7.64039 7.80187 7.65167C7.87106 7.66156 7.93694 7.61686 7.99 7.56334C8.51532 6.89841 8.82887 6.05845 8.82887 5.14526ZM3.66632 7.56807C3.9461 7.92926 4.37067 8.30668 4.92057 8.30773L4.92164 8.30773C5.44193 8.30773 5.87295 7.96054 6.17696 7.56807C6.55483 7.08024 6.73619 6.54062 6.68341 5.92794C6.64721 5.50781 6.33338 5.11645 5.83725 5.32642C5.72311 5.37472 5.63435 5.45061 5.54433 5.52756C5.48641 5.57707 5.42798 5.62703 5.36193 5.67037C5.10035 5.84201 4.74293 5.84201 4.48135 5.67037C4.41531 5.62703 4.35688 5.57708 4.29897 5.52757C4.20895 5.45062 4.12017 5.37472 4.00604 5.32642C3.5099 5.11645 3.19607 5.50781 3.15987 5.92794C3.10709 6.54062 3.28845 7.08024 3.66632 7.56807Z" fill="#1E1E1E"/>
</svg>
